<?xml version="1.0" encoding="utf-8"?>
<!-- Generator: Adobe Illustrator 26.3.1, SVG Export Plug-In . SVG Version: 6.00 Build 0)  -->
<svg version="1.1" id="a" xmlns="http://www.w3.org/2000/svg" xmlns:xlink="http://www.w3.org/1999/xlink" x="0px" y="0px"
	 viewBox="0 0 935.7 403.7" style="enable-background:new 0 0 935.7 403.7;" xml:space="preserve">
<style type="text/css">
	.st0{fill:#231F20;stroke:#231F20;stroke-width:0.5;stroke-miterlimit:10;}
	.st1{fill:#FFFFFF;stroke:#231F20;stroke-width:0.5;stroke-miterlimit:10;}
	.st2{fill:none;stroke:#231F20;stroke-miterlimit:10;}
	.st3{fill:none;stroke:#231F20;stroke-width:0.88;stroke-miterlimit:10;}
	.st4{fill:none;stroke:#231F20;stroke-width:0.89;stroke-miterlimit:10;}
	.st5{fill:none;stroke:#231F20;stroke-width:0.81;stroke-miterlimit:10;}
	.st6{fill:none;stroke:#231F20;stroke-width:0.84;stroke-miterlimit:10;}
	.st7{fill:none;stroke:#231F20;stroke-width:0.73;stroke-miterlimit:10;}
	.st8{fill:none;stroke:#231F20;stroke-width:0.75;stroke-miterlimit:10;}
	.st9{fill:none;stroke:#231F20;stroke-width:0.66;stroke-miterlimit:10;}
	.st10{fill:none;stroke:#231F20;stroke-width:0.61;stroke-miterlimit:10;}
	.st11{fill:none;stroke:#231F20;stroke-width:0.9;stroke-miterlimit:10;}
	.st12{fill:none;stroke:#231F20;stroke-width:0.79;stroke-miterlimit:10;}
	.st13{fill:none;stroke:#231F20;stroke-width:0.8;stroke-miterlimit:10;}
	.st14{fill:none;stroke:#231F20;stroke-width:0.76;stroke-miterlimit:10;}
	.st15{fill:none;stroke:#231F20;stroke-width:0.67;stroke-miterlimit:10;}
	.st16{fill:none;stroke:#231F20;stroke-width:0.59;stroke-miterlimit:10;}
	.st17{fill:none;stroke:#231F20;stroke-width:0.55;stroke-miterlimit:10;}
	.st18{fill:#FFFFFF;stroke:#231F20;stroke-width:0.66;stroke-miterlimit:10;}
</style>
<path class="st0" d="M294.9,153c0,0-0.2,0.4-0.4,0.8c-0.6,1.1-2.1,1.9-3.1,1.9c-1.7,0-3.2-2-3.6-3.4c-1.9-5.9,9.4-18.1,20.7-18.1
	c1.8,0,4.5,0,5.9,1.7c2.9,3.5-1.5,11.5-4.6,17.2c-13.1,23.7-20.9,38-23.9,53.1c-1.1,5.4-1.8,12.2,2.1,16.5c0.3,0.3,3.1,3.2,7.3,3.5
	c3.3,0.2,5.8-1.4,9.2-3.8c10.9-7.8,19.2-17,19.2-17c-1.1,6.4,0,11.3,0.8,13.9c0.8,2.5,1.5,5,3.9,7.1c2.8,2.5,6,3.1,7.3,3.3
	c5.5,0.8,10.2-1.5,13.8-3.6c16.2-9.5,26-24.1,26-24.1s7.9-11.9,11.5-24.8c1.9-6.9,4.3-18.9,4.3-18.9c1.2-0.3,3.1-0.7,5.2-1.5
	c5.2-1.8,9.3-4.1,19-11.1c7.9-5.7,10-7.5,15.1-10c2.8-1.4,6.6-2.9,11.1-2.5c1.7,0.2,5.7,0.5,7.5,3.3c1.1,1.7,1.4,3.6,1.5,3.6
	s0.1-2-0.9-3.7c-1.2-2.1-3.5-3-4.5-3.4c-4.9-1.8-10.4-0.1-13.5,1.2c-3.8,1.5-7.1,3.8-13.4,8.3c-11.9,8.5-16.4,11.8-23.6,12.9
	c-1.6,0.2-2.9,0.3-3.7,0.4c0-0.5,1.9-9.4-1.6-15.1c-2-3.2-6.4-6.6-11.2-5.8c-3.1,0.5-6.3,2.7-7.4,6.1c-1.7,5.3,3,10.1,3.6,10.7
	c3.1,3.1,8.5,4.9,8.5,4.9s-0.5,6.4-1.2,10.5c-0.8,4.4-2,7.6-4.1,12.4c-5.2,12-7.7,18-10.3,22.1c-8.2,13.3-16.6,19.6-22,22.6
	c-3.9,2.2-7.5,3.5-11,2.3c-3.2-1.1-4.9-4-5.5-5.2c-5.4-9.6,2.4-23.2,3.4-24.9c23.8-23.7,23.9-31.5,22.1-34.4c-1.2-2-4-2.8-5.9-2.7
	c-8.2,0.2-14.1,15.4-19.6,29.4c-2.1,5.4-3.6,10.1-4.6,13.3c0,0-5.4,5.9-11.8,11.9c-4,3.7-3.8,3.5-6.1,5.3c-5.4,4.4-7.3,5-9.1,4.9
	c-0.4,0-3.3-0.1-5-2c-3.2-3.5-0.2-11.2,2.9-18.4c5.8-13.6,10.5-22.4,13-27.5c6.6-13.3,16-32.4,9.3-39.9c-3.3-3.8-9.6-3.5-12-3.2
	c0,0-10.6,0.9-16.8,11.8c-1.8,3.1-1.7,5.2-1.6,6.1c0.1,0.6,0.3,2.1,1.4,3.4c0.5,0.5,1.5,1.8,3.1,1.7c0.1,0,1.9,0,2.8-1.4
	C294.9,153.9,295,153,294.9,153L294.9,153z"/>
<path class="st1" d="M383.4,154.3c0,0,0.9-14.3-4.2-16.6c-1.9-0.9-4.4,0-5.6,1.4c-1.6,2-0.7,5.2-0.4,6.3c0.1,0.3,0.5,1.5,1.4,2.8
	c1.2,1.7,2.5,2.6,3.8,3.5C379.4,152.5,381.1,153.5,383.4,154.3L383.4,154.3z"/>
<path class="st1" d="M334.5,191.1c0,0,6.1-6.5,11.5-13.6c8.3-10.9,7.6-13.4,7.1-14.4c-0.6-1-1.8-1.8-3-1.8
	c-3.4-0.1-6.1,5.8-9.3,12.9C337.1,182.4,334.5,191,334.5,191.1L334.5,191.1z"/>
<path class="st0" d="M390.6,211.7c0,0,8.7-2.4,9.9-2.8c5.2-1.9,6-3.1,6.2-3.8c0.8-1.7,0.5-3.8-0.5-5.3c-2.4-3.5-8.9-2.3-9.6-2.1
	c-6.8,1.4-13.4,8.4-13.3,16.5c0,0.9,0.1,7.4,4.7,10.7c5,3.6,12,1.2,16-0.2c9.4-3.3,17.1-10.8,17.1-10.8s-0.4,3.3,0.6,5.6
	c0.8,2,2.8,3.7,4.9,4.1c2.1,0.4,3.9-0.5,5.3-1.2c0,0,8-4.2,16.7-12.2c-2.5,9.8-2.5,13.7-2.5,13.7c0,3.4,0.1,5.9,1.9,7.6
	c2.8,2.8,8.3,1.8,9,1.6c1.4-0.3,2.5-0.9,4.6-2c0.9-0.5,2.5-1.4,7.1-4.6c2-1.4,3.4-2.5,3.8-2.8c3-2.2,5-3.8,8.5-6.2l0,0
	c0,0,0.5,1.4,1.2,2.4c0,0,0.7,0.9,1.9,1.6c2.2,1.3,5.7-0.2,7-0.8c8.5-3.9,14.9-11.8,14.9-11.8c-1.8,6.9-2.1,8.4-2.1,8.4
	c-2.8,11.6-2,12.8-1.5,13.3c1.2,1.1,3.2,0.9,5.5,0.5c1.3-0.2,2.8-0.6,7.5-3.1c2.2-1.2,4.4-2.4,7.6-4.4c2.7-1.7,4.7-3.2,6.4-4.5
	c0,0,6.3-4.8,17.6-14.3c0,0-1.2,4.3-3,8.6c-1.2,2.9-1.8,3.6-2.1,5.6c-0.2,1.4-0.5,3.6,0.5,4.6c1,0.9,2.8,0.6,6.5-0.7
	c8.8-3.3,16-8.4,16-8.4s-0.8,2.6-1.6,5c-1.2,3.5-2.1,5-1.5,5.4c0.2,0.2,0.7,0.1,1.6,0c0.5-0.1,1.4-0.2,2.2-0.6
	c1.2-0.6,1.5-1.6,2.4-3.3c0.7-1.3,1.6-2.4,2.4-3.7c1.8-3,4.2-5.5,8.1-9.4c4.3-4.4,6-5.5,7.7-6.3c1.6-0.7,3.7-1.7,5.2-0.8
	c0.3,0.2,1.7,1.2,1.4,5.9c-0.4,5.7-2.9,9.1-8.2,20c-1.3,2.6-2,4.1-2.3,6.2c-0.2,1.5-1.2,7.7,2.2,10.6c3.3,2.8,8.7,0.9,11.4,0
	c2.4-0.8,4.9-2.6,9.8-6.2c5.4-4,10.8-8.3,10.9-8.4c2,3.3,2.6,3.8,2.6,3.8c1.7,1.4,4,1.2,5.2,1.1c2.6-0.2,7.3-1.6,15.1-9.8
	c6.1-6.4,11.2-13.8,11.2-13.8s-2,6.6-4.2,13.4c-1.7,5.3-3.6,10.9-3.6,10.9c-1.8,0.8-4.4,2-7.4,3.9c-3.5,2.2-8.2,5.3-11.8,10.8
	c-1.8,2.7-3.4,5.1-3.5,8.7c0,0.9-0.2,6.8,4.2,10.5c0.8,0.7,3.2,2.8,6.2,2.4c0.8-0.1,3.5-0.5,7.6-6.9c3.8-6,5.5-11.9,8.5-23.1
	c0.1-0.3,1.2-4.4,1.2-4.4s2.8,0.1,3.4,0.1c2.9,0.2,5.4,1.5,6.9,2.3c1.9,1,7.8,4,12.2,5.2c1,0.3,6.3,1.7,11.9,0.3
	c9.8-2.4,15.8-12.2,15.8-12.1c0,0-0.8,1.1-2.6,2.8c-2.6,2.5-5.3,5.2-8.7,6.9c-7.7,3.8-16.4,0.8-18.5,0c-3.8-1.5-7.3-3.4-7.3-3.4
	c-2.4-1.3-3.4-2.1-5.3-2.8c-2.8-1-5.3-1-6.9-0.9c0,0,2-6.1,3.3-9.8c1.8-5.1,4.9-13.3,7.4-22.5c0.5-1.7,1.3-4.7,0.2-5.4
	c-1-0.6-2.9,0.7-3.3,0.9c-1.6,1.1-2.2,2.4-3.6,4.6c-0.9,1.5-2,2.9-3,4.4c-6.1,9.6-13.7,18-14.4,18.8c-0.6,0.6-4.1,4.4-9.1,5.8
	c-1.1,0.3-1.9,0.4-2.6,0c-1.9-1.4-0.2-6.8,0.5-8.9c1-3,2.3-5.8,5.5-10.8c5.2-7.9,7.8-11.9,11.1-12c3-0.1,5.5,2.6,6,1.9
	c0.3-0.4-0.5-1.8-1.5-2.6c-1.7-1.4-3.8-1.3-5.2-1.3c-2.9,0.1-5,1.2-5.8,1.6c-7.1,3.8-11.4,11.7-11.8,12.4
	c-3.5,6.4-5.1,14.1-5.1,14.1s-5.7,4.2-11.3,8.4c-4.5,3.4-7.2,5.4-11.5,7.4c-4.3,2-5.5,1.8-6,1.3c-0.8-0.6-1.4-2.2,0.9-9.2
	c2.9-9,5.6-11.5,8.2-19.7c2.6-8.1,1.6-10.7,0.9-12.1c-2-3.4-5.9-4.1-6.1-4.2c-4.9-0.9-9.2,2.9-13.4,6.5c-2.8,2.5-6.5,6.4-6.5,6.4
	s0.6-2.8,1.7-5.2c1.3-3.2,2.7-4.1,2.2-5c-0.3-0.6-1.3-0.6-3.2-0.6c-1.6,0-2.5,0-3.2,0.4c-1.4,0.8-1.3,2.5-2,5.2
	c-0.7,2.4-1.7,4.5-2.5,5.7c-1.1,1.7-2.5,2.6-8.8,5.6c-8.5,4.1-9.1,4-9.5,3.7c-1.7-1.5,1.8-8.6,4.2-13.6c2.2-4.5,4.1-7.4,3.1-8.4
	c-1.1-1.1-5.4,0.3-5.4,0.3l-2.5,2.9c-2,2.4-6.1,6.6-12.3,11.4c-6.2,4.9-12.9,8.9-12.9,8.9s-4.4,3.1-9.7,5.6
	c-2.8,1.3-3.4,1.4-3.8,1.1c-1-0.7-0.6-3,1.2-8.6c1.9-5.8,3.4-10.6,7.1-17.8c2-4,5.2-9.6,5.2-9.6c1.7-2.1,5.8-6.9,9.2-11.1
	c7-8.4,10.5-12.7,12.7-19c2.4-6.8,1.1-9.4,0.3-10.5c-1-1.2-2.5-2-3.8-2.2c-6.7-0.9-14.4,14.5-21,27.8c-6,12.3-11.5,26.9-11.5,26.9
	c-4.8,4.5-6.8,6.2-10.8,9.8c-5.3,4.7-7.1,6-8.4,5.4c-1.4-0.6-1.6-3-1.7-3.9c-0.9-9.9,9.8-22.3,16-20.7c2.6,0.6,4.3,3.8,4.6,3.4
	c0.3-0.2-0.6-2.4-2.4-3.7c-1.5-1.1-3.2-1.3-3.7-1.3c-4.7-0.4-11.1,3.8-15.2,9.4c-1.5,2.1-4,6-5,11.9c-3.1,2.6-5.9,4.6-7.9,6.2
	c-2.2,1.6-0.9,0.6-5.3,3.9c-2.8,2.1-5,3.8-8.2,5.2c-0.8,0.4-1.9,0.8-3.2,1c-0.7,0.1-3.2,0.5-4.4-0.3c-0.6-0.4-2.4-2.2,1.6-14.8
	c3.2-10,7.6-19.1,7.6-19.1c-8.8,8.8,10.3-10.2,10.3-10.2c4.7-4.8,20-20.6,20.8-33.5c0.3-4.2-1.2-5.3-1.5-5.5c-2-1.4-5.3,0.3-6.6,1
	c-9.1,4.6-20,27.8-22.8,34.1c-2.9,6.2-6.2,13.4-9.7,21.5c-2.2,2.6-5.7,6.4-10.8,10c-4.7,3.4-10,7.3-12.1,5.8
	c-2.7-2,1.9-12.2,5.6-17.9c1.7-2.7,4.6-7.1,7.7-6.7c2.6,0.3,4.1,3.9,4.9,3.4c0.5-0.3,0.3-2-0.6-3.3c-1.3-2-3.8-2.3-4.6-2.4
	c-4.7-0.6-8.9,3.2-11.5,5.6c-2.3,2.1-5.8,5.9-8.5,12l0,0c-0.2,0.1-5.6,4.2-11.4,7.7c-5.4,3.2-8.5,4.2-11.1,4.9
	c-3.1,0.7-5.2,1.2-6.8,0.1C389.7,222.3,389,217.4,390.6,211.7L390.6,211.7z"/>
<path class="st1" d="M392.4,208.5c0,0,3.5-0.4,6.4-1.2c2.5-0.8,6.1-1.8,6.4-4c0.2-1.6-1.4-3.9-3.3-4.2
	C397.7,198.6,392.4,208.5,392.4,208.5L392.4,208.5z"/>
<path class="st1" d="M464.6,191.7L464.6,191.7c-0.1,0.1,8.3-9.3,17.1-19.8c3.8-4.6,6.5-7.9,8.1-13.2c0.1-0.3,2.1-7.4,0.4-8.2
	c-2.1-1-8.8,8-12.5,13.6C469.3,177.3,464.6,191.7,464.6,191.7L464.6,191.7z"/>
<path class="st1" d="M523.4,187.3c8.4-9.1,11.5-13,11.5-13c6.1-7.5,7.3-10.7,7.8-13.8c0-0.3,0.9-5.9-0.5-6.4
	c-2.5-0.9-9.8,13.7-11.7,17.5C527.1,178.5,523.5,187.2,523.4,187.3L523.4,187.3z"/>
<circle class="st0" cx="553.5" cy="192.1" r="2.8"/>
<path class="st1" d="M641.8,236.6c0,0-2,9.8-5.6,19.4c-2.4,6.2-4.7,12.3-8,12.3c-1.6,0-2.8-1.4-3.5-2.2c-3.5-4-2.3-10-2.1-10.8
	C625.1,243.9,641.8,236.6,641.8,236.6L641.8,236.6z"/>
<path class="st0" d="M368.8,82.4c2.3-2.2,5-2.2,5-2.2l0,0c3.2-0.3,5.8,1.2,5.7,1.4c0,0.2-1.7-0.4-4.2-0.2l0,0
	c-1.8,0-4.3,1.3-7.7,3.9c-0.8,2-2,5-3.1,8.8c-2.1,7-3.6,12.1-2,13.4c2.5,1.9,11.2-5.7,14.2-8.3l0,0c3.5-9.9,5.4-15.1,5.4-15.1
	s0.9-2.9,2.3-5.6c1.3-2.4,2.2-3.1,2.5-3.4c0.6-0.5,1.9-1.5,3.2-1.2c1.7,0.4,2.7,2.8,3,4.4c0.8,4.8-3.4,9.3-5.7,11.7
	c-1.2,1.3-4,4.1-4,4.1l-2,6.9c0.3-0.3,2.7-2.6,6-2.1c0.9,0.1,2.7,0.4,3.6,1.8c1.1,1.7-0.2,3.6-1.5,9.9c-0.6,3.2-0.5,3.8-0.2,4
	c1.1,0.9,4.9-2.1,8.2-5c-0.2-1.8-0.4-5,1.2-8.4c0.7-1.5,2.5-5.6,6.2-6.3c1.4-0.3,3.8-0.2,4.8,1.3c1.1,1.7-0.1,4.2-0.5,4.9
	c0,0-1,2-7,6.1c0,0-0.6,1.6-0.3,2.1c0.6,1,6.3-1.1,12.2-4.3c4.1-2.2,6.8-4,6.8-3.9c0,0.1-1.7,1.2-8.5,5.7c-1.1,0.8-3.2,2.1-6,3.4
	c-3.2,1.5-4.6,1.6-5.8,1.3c0,0-0.1,0-2.4-0.8c0,0-6.1,4.8-7.3,5.4c-2.1,1-3.5,1.7-4.5,1c-2.3-1.4-0.2-8.7-0.1-9.2
	c1.1-3.8,2.7-5.6,1.9-6.4c-0.9-0.9-3.9,0.7-4.4,0.9c-5.9,3-7.7,8.8-8.7,8.4c0,0-0.5-0.2,0.6-8.1c-8.4,6.1-12.1,6.8-12.1,6.8
	c-1.8,0.3-3.9,0.7-5.2-0.6c-0.8-0.8-1.2-2.1,0.7-10l0,0c0.8-3.5,1.9-7.7,3.4-12.5c-0.8,0.3-2.2,0.7-4,0.6c-1.7-0.1-5.2-0.8-5.6-2.7
	c-0.5-2,2.8-4.3,2.8-4.3c0,0-1.8,1.3-1.6,2.7c0.2,1.4,2.3,2.2,2.5,2.3c2.9,1.1,5.9-0.8,6.5-1.2c0.2-0.7,1.2-5.1,2.2-7.9
	c0.2-0.6,0.4-1.1,0.8-2.1c0.8-1.8,1-2.1,1.4-2.4c0.8-0.7,1.7-0.8,2-0.8c0.3,0,1.4-0.1,1.9,0.5c0.7,0.7-0.1,2.9-0.5,4
	C370.3,76.8,369.5,79.3,368.8,82.4L368.8,82.4z"/>
<path class="st1" d="M384.3,90.7c0,0,4.7-3.1,6.3-7.2c1.4-3.4,0.7-7.4-0.2-7.6C388.7,75.6,384.3,90.7,384.3,90.7L384.3,90.7z"/>
<path class="st1" d="M401.5,105.7c1.9-1.2,3.4-2.5,4.5-3.4c1-0.9,1.8-1.8,2.2-3.1c0.1-0.3,0.5-1.7,0-2.2c-0.7-0.6-2.5,0.5-3.3,1.1
	C402.1,100.2,401.6,103.8,401.5,105.7z"/>
<path class="st0" d="M555.3,286.3c0,0-2.2,3-2.8,5.8c-0.4,2.2-0.2,5.8,1.8,6.8c2.2,1.2,5.6-1.3,6.8-2.2c2.3-1.7,4.5-4.5,4.5-4.5
	l6-0.1l-1,2.9c0,0-1-0.1-2,0c-0.7,0.1-1.2,0.2-1.4,0.6c0,0-0.3,0.5,1.7,3.5c0,0-2.2,6-4.8,12.4c0,0-1.7,4.3-1.1,8.3
	c0,0.2,0.1,0.6,0.4,0.8c1.2,0.7,5.6-2.4,7.5-6.6c1.9-4.2-0.6-5.7,1.5-11.2c0.9-2.5,3-6.2,3-6.2c10.1-3.2,10.1-3.5,10.1-3.5
	c-0.1-0.4-8.9,1.4-8.9,1.4l2.8-5.5c6.1-3.5,8.3-5.2,8.3-5.2c2.2-1.7,3.9-3,5.5-5.2c1.4-1.9,4.6-6.3,3.1-10.9c-0.6-2-2.5-5-5-5.3
	c-3.4-0.4-6.3,4-9.7,9.2c-5.6,8.6-8.9,18-8.9,18l-5.8,0.3c0,0,2.5-5.3,2-9.6c-0.4-3.6-3.2-8.4-7.3-8.6c-3.6-0.1-6.8,3.4-7.5,6.6
	C554.2,278.6,554,279.7,555.3,286.3L555.3,286.3z"/>
<path class="st1" d="M559.2,289.9L559.2,289.9c-0.1,0.1-1.6,1.6-2.3,3.1c-0.6,1.3-1,3.6-0.3,4c1.4,0.8,6.8-5.2,6.8-5.2l0,0
	C561.6,291,559.2,289.9,559.2,289.9L559.2,289.9L559.2,289.9z"/>
<path class="st1" d="M564.6,289.9l-3.9-1.4c0.3-0.3,3.2-2.5,2.8-3.9c-0.1-0.2-0.4-1-0.7-1.5c-0.3-0.5-0.4-0.8-0.5-0.8
	c-1-0.7-3.8,3.2-5.5,2.6c-1.5-0.5-2.2-4.4-0.7-7.3c0.9-1.7,2.8-3.7,5.3-3.6c3.5,0.2,5.1,4.4,5.3,4.9
	C568.8,284.2,565,289.3,564.6,289.9L564.6,289.9z"/>
<path class="st1" d="M580.6,286.2L580.6,286.2c0,0,6.5-3,11.1-8.2c1.8-2.1,4.4-5.1,3.9-8.7c-0.2-1.2-0.9-3.8-2.4-4
	C588.7,264.6,580.6,286.2,580.6,286.2z"/>
<path class="st2" d="M462.6,79.7c-0.4,1.8-0.5,4.3,0.9,5.8c3.3,3.6,13.1-0.4,16-1.5c20.1-7.8,48.1-6.3,72.1-5.1
	c20.8,1.1,35.9,6.3,50.8,11.6c48,16.8,82.3,46.5,102.7,68"/>
<path class="st2" d="M555,24.5c0,0-17.9,10.6-26.1,27c-5.5,11-6.5,24.7-2.9,26.5c0.4,0.2,1.9,0.7,7.5-3.8
	c4.7-3.9,14.3-11.7,18.6-26.5C555.2,36.8,555,23.9,555,24.5L555,24.5L555,24.5z"/>
<path class="st2" d="M526,78c3.9-9,8.6-18.7,14.1-28.7c4.9-9,10-17.3,14.9-24.8"/>
<path class="st3" d="M595.8,38.8c0,0-17.2,6-27,18.6c-6.6,8.5-9.9,20-7.1,22.2c0.3,0.2,1.5,1,7-2c4.7-2.5,14.3-7.6,20.6-19.5
	C593.8,49.5,596,38.3,595.8,38.8L595.8,38.8z"/>
<path class="st3" d="M561.6,79.7c5-7.1,10.6-14.5,17.1-22.2c5.8-6.9,11.5-13.1,17.1-18.6"/>
<path class="st4" d="M639.7,59c0,0-18.5,0.1-32.1,9.1c-9.2,6-16.1,16-14.1,19c0.2,0.3,1.1,1.4,7.4,0.4c5.4-0.8,16.3-2.6,26.2-12
	C634.4,68.6,640.1,58.5,639.7,59L639.7,59L639.7,59z"/>
<path class="st4" d="M593.5,87.1c7.1-5.2,15-10.5,23.7-15.7c7.8-4.7,15.4-8.8,22.5-12.3"/>
<path class="st2" d="M545.1,135.8c0,0-15.8-13.7-20.9-31.2c-3.4-11.8-2.1-25.5,1.8-26.6c0.4-0.1,2-0.4,6.7,5.1
	c4,4.6,12,14.1,13.6,29.4C547.5,123.7,545.1,136.4,545.1,135.8L545.1,135.8z"/>
<path class="st2" d="M526,78c2.3,9.6,5.1,19.9,8.8,30.8c3.3,9.8,6.8,18.8,10.3,27"/>
<path class="st3" d="M571.8,132.2c0,0-12.1-13.7-14.5-29.5c-1.6-10.7,1.1-22.3,4.6-22.8c0.4-0.1,1.8-0.1,5.2,5.2
	c2.9,4.5,8.8,13.6,8.4,27.1C575.3,122,571.7,132.8,571.8,132.2L571.8,132.2L571.8,132.2z"/>
<path class="st3" d="M561.9,79.9c0.9,8.6,2.2,17.8,4.1,27.7c1.7,8.8,3.7,17.1,5.8,24.6"/>
<path class="st5" d="M602.5,136c0,0-11-12.8-13.1-27.4c-1.4-9.9,1.3-20.7,4.5-21.1c0.4-0.1,1.7-0.1,4.8,4.8c2.6,4.2,8,12.7,7.5,25.2
	C605.8,126.5,602.4,136.5,602.5,136L602.5,136L602.5,136z"/>
<path class="st5" d="M594,87.5c0.7,7.9,1.8,16.5,3.5,25.7c1.5,8.2,3.2,15.8,5.1,22.8"/>
<path class="st6" d="M675.2,82.1c0,0-17.3-2.8-31.3,3.3c-9.5,4.1-17.5,12.3-16.2,15.4c0.2,0.3,0.8,1.5,6.8,1.6
	c5.1,0.1,15.5,0.2,26.3-7C668.6,90.1,675.6,81.7,675.2,82.1L675.2,82.1z"/>
<path class="st6" d="M627.7,100.8c7.4-3.7,15.6-7.4,24.6-10.8c8-3.1,15.7-5.7,22.9-7.9"/>
<path class="st7" d="M699.4,106.5c0,0-14.6-4.8-27.5-1.3c-8.7,2.3-16.8,8.3-16,11.2c0.1,0.3,0.5,1.4,5.7,2.3
	c4.4,0.7,13.4,2.2,23.7-2.6C692.7,112.6,699.8,106.3,699.4,106.5L699.4,106.5L699.4,106.5z"/>
<path class="st7" d="M655.8,116.4c6.9-2.2,14.5-4.3,22.7-6.1c7.4-1.6,14.4-2.8,20.9-3.8"/>
<path class="st8" d="M728.8,133.8c0,0-14-6.8-27.5-5.2c-9.1,1.1-18.1,6-17.7,9c0,0.3,0.3,1.5,5.4,3.1c4.3,1.4,13.2,4.1,24.2,0.8
	C721.2,138.9,729.2,133.6,728.8,133.8L728.8,133.8L728.8,133.8z"/>
<path class="st8" d="M683.5,137.5c7.2-1.2,15.2-2.3,23.7-2.9c7.7-0.6,14.9-0.8,21.5-0.8"/>
<path class="st6" d="M645.1,148.8c0,0-13.7-10.9-18.5-25.5c-3.3-9.8-2.6-21.3,0.6-22.3c0.4-0.1,1.7-0.4,5.8,4
	c3.5,3.8,10.5,11.4,12.4,24.2C646.7,138.6,645.1,149.3,645.1,148.8L645.1,148.8L645.1,148.8z"/>
<path class="st6" d="M627.2,101c2.2,8,5,16.5,8.4,25.5c3.1,8.1,6.3,15.5,9.5,22.3"/>
<path class="st7" d="M669.8,159.6c0,0-11.7-9.9-15.6-22.7c-2.6-8.6-1.8-18.7,1.1-19.5c0.3-0.1,1.5-0.3,4.9,3.7
	c3,3.4,9,10.2,10.3,21.5C671.5,150.7,669.8,160.1,669.8,159.6L669.8,159.6L669.8,159.6z"/>
<path class="st7" d="M655.2,117.4c1.8,7,4,14.6,6.8,22.5c2.5,7.1,5.1,13.7,7.8,19.7"/>
<path class="st9" d="M693.8,176.6c0,0-10-9.4-12.8-21.1c-1.9-7.9-0.6-16.8,2-17.4c0.3-0.1,1.3-0.2,4.2,3.5c2.5,3.2,7.5,9.6,8.1,19.8
	C695.7,168.7,693.7,177.1,693.8,176.6L693.8,176.6L693.8,176.6z"/>
<path class="st9" d="M682.9,138.1c1.2,6.4,2.8,13.2,4.9,20.5c1.9,6.5,3.9,12.5,6,18.1"/>
<path class="st10" d="M711.2,194.1c0,0,3.9-12.1,1-22.8c-1.9-7.2-6.9-13.9-9.3-13.3c-0.3,0.1-1.2,0.4-1.9,4.7
	c-0.6,3.7-1.8,11.1,2.2,19.6C706.1,188.5,711.4,194.4,711.2,194.1L711.2,194.1L711.2,194.1z"/>
<path class="st10" d="M703,158c1.8,5.7,3.6,12,5.1,18.8c1.4,6.1,2.4,11.9,3.1,17.3"/>
<path class="st10" d="M738.5,171.7c0,0-7.3-10.4-17.6-14.6c-6.9-2.8-15.3-2.8-16.2-0.6c-0.1,0.3-0.4,1.2,2.7,4.4
	c2.6,2.7,7.8,8.2,17,10.1C731,172.4,738.9,171.7,738.5,171.7L738.5,171.7L738.5,171.7z"/>
<path class="st10" d="M704.7,156.6c5.7,2,11.7,4.4,18.1,7.2c5.7,2.6,10.9,5.3,15.7,7.9"/>
<path class="st11" d="M423.6,326.9c0.5-1.6,0.9-3.8-0.2-5.3c-2.6-3.6-11.8-0.9-14.5-0.2c-18.8,5-43.8,0.9-65.1-2.5
	c-18.6-3-31.5-9.2-44.4-15.4c-41.3-19.7-69.2-49.8-85.4-71"/>
<path class="st11" d="M335.4,367.4c0,0,17.1-7.8,26-21.7c6-9.4,8.3-21.5,5.2-23.4c-0.4-0.2-1.6-0.9-7,2.7c-4.6,3-14,9.1-19.3,22
	C336.4,356.3,335.2,367.9,335.4,367.4L335.4,367.4L335.4,367.4z"/>
<path class="st11" d="M366.6,322.2c-4.4,7.7-9.5,15.9-15.4,24.4c-5.3,7.6-10.6,14.5-15.8,20.7"/>
<path class="st12" d="M300.2,350.5c0,0,16-3.7,26.1-14.1c6.8-7,10.9-17,8.6-19.2c-0.3-0.2-1.2-1-6.5,1.1
	c-4.5,1.8-13.6,5.4-20.4,15.5C303,341.1,300,350.9,300.2,350.5L300.2,350.5L300.2,350.5z"/>
<path class="st12" d="M334.8,317.2c-5.1,5.8-10.9,12-17.5,18.2c-5.9,5.6-11.6,10.6-17.1,15"/>
<path class="st13" d="M262.7,328.1c0,0,16.6,1.7,29.7-5c8.8-4.5,16-12.8,14.5-15.7c-0.2-0.3-0.9-1.4-6.6-1.1
	c-4.9,0.2-14.8,0.7-24.7,8.2C268.5,320,262.4,328.5,262.7,328.1L262.7,328.1L262.7,328.1z"/>
<path class="st13" d="M307,307.5c-6.9,3.9-14.5,7.9-22.8,11.8c-7.5,3.5-14.7,6.4-21.4,8.9"/>
<path class="st11" d="M355.1,268.5c0,0,12.8,13.8,15.7,30c1.9,10.9-0.6,23-4.2,23.6c-0.4,0.1-1.8,0.2-5.5-5.2
	c-3.1-4.5-9.4-13.8-9.3-27.7C351.8,279.1,355.2,268,355.1,268.5L355.1,268.5L355.1,268.5z"/>
<path class="st11" d="M366.6,322.2c-1.1-8.8-2.7-18.3-4.9-28.5c-2-9.1-4.2-17.5-6.6-25.2"/>
<path class="st12" d="M330.8,269.1c0,0,9.5,13.4,10.1,27.9c0.4,9.7-3.2,19.9-6.4,20c-0.4,0-1.6-0.1-4.1-5.1
	c-2.2-4.3-6.6-13.1-4.9-25.1C326.7,277.9,331,268.6,330.8,269.1L330.8,269.1L330.8,269.1z"/>
<path class="st12" d="M334.6,316.9c0.1-7.8-0.2-16.2-0.9-25.2c-0.7-8.1-1.6-15.6-2.8-22.6"/>
<path class="st7" d="M303.7,262.7c0,0,8.6,12.5,9.1,25.9c0.3,9-3.2,18.4-6.1,18.5c-0.3,0-1.5-0.1-3.8-4.8c-2-4-5.9-12.2-4.3-23.3
	C299.8,270.8,303.8,262.3,303.7,262.7L303.7,262.7L303.7,262.7z"/>
<path class="st7" d="M306.6,307c0.1-7.2,0-15-0.6-23.4c-0.5-7.5-1.4-14.5-2.3-21"/>
<path class="st14" d="M233.2,303.9c0,0,15.2,4.2,28.4,0.1c8.9-2.8,17-9.3,16-12.2c-0.1-0.3-0.6-1.4-6-2.1
	c-4.6-0.6-13.9-1.7-24.3,3.7C239.9,297.4,232.9,304.2,233.2,303.9L233.2,303.9L233.2,303.9z"/>
<path class="st14" d="M277.7,291.8c-7,2.6-14.7,5.1-23.1,7.3c-7.5,2-14.7,3.6-21.3,4.8"/>
<path class="st9" d="M213.9,279.6c0,0,12.6,5.7,24.6,3.9c8.1-1.2,15.9-5.8,15.5-8.5c-0.1-0.3-0.3-1.3-4.9-2.6
	c-3.9-1.1-11.8-3.3-21.5,0C220.5,274.8,213.5,279.8,213.9,279.6L213.9,279.6L213.9,279.6z"/>
<path class="st9" d="M253.9,275c-6.4,1.3-13.4,2.4-20.9,3.3c-6.8,0.7-13.2,1.1-19.1,1.3"/>
<path class="st15" d="M190.2,252.3c0,0,11.9,7.5,24.2,7.4c8.3-0.1,16.8-3.6,16.8-6.3c0-0.3-0.1-1.4-4.6-3.3
	c-3.8-1.6-11.4-5-21.6-3.1C197.6,248.4,189.8,252.4,190.2,252.3L190.2,252.3L190.2,252.3z"/>
<path class="st15" d="M231.2,253.4c-6.6,0.4-13.8,0.6-21.5,0.3c-6.9-0.2-13.4-0.7-19.4-1.4"/>
<path class="st14" d="M266.8,247c0,0,11.2,11.1,14.1,24.7c2,9.1,0.2,19.4-2.8,20c-0.3,0.1-1.5,0.2-4.8-4.2
	c-2.8-3.7-8.3-11.3-8.7-22.9C264.3,256,266.9,246.6,266.8,247L266.8,247L266.8,247z"/>
<path class="st14" d="M278.1,291.6c-1.2-7.4-2.8-15.3-5-23.7c-1.9-7.5-4.1-14.5-6.3-20.9"/>
<path class="st9" d="M245.7,234.9c0,0,9.5,10,11.8,21.9c1.5,8-0.2,16.9-2.9,17.4c-0.3,0-1.3,0.1-4.1-3.8c-2.3-3.3-7-10-7.1-20.3
	C243.3,242.8,245.7,234.5,245.7,234.9L245.7,234.9z"/>
<path class="st9" d="M254.6,274.2c-0.9-6.5-2.1-13.5-3.9-20.8c-1.5-6.6-3.3-12.8-5.1-18.5"/>
<path class="st16" d="M225.8,217.3c0,0,8,9.4,9.4,20.2c0.9,7.2-1.1,15.1-3.5,15.4c-0.3,0-1.2,0.1-3.4-3.6c-1.9-3.1-5.8-9.4-5.4-18.5
	C223.3,224.2,225.9,216.9,225.8,217.3C225.8,217.3,225.8,217.3,225.8,217.3z"/>
<path class="st16" d="M231.8,252.9c-0.5-5.8-1.2-12.1-2.4-18.9c-1-6-2.3-11.6-3.6-16.8"/>
<path class="st17" d="M211.9,200c0,0-4.7,10.4-3.2,20.4c1,6.7,4.9,13.2,7,12.8c0.2,0,1.1-0.3,2.1-4.1c0.9-3.2,2.7-9.8,0-17.8
	C215.9,205.4,211.8,199.7,211.9,200L211.9,200L211.9,200z"/>
<path class="st17" d="M215.8,233.1c-1.1-5.3-2-11.1-2.7-17.4c-0.6-5.6-1-10.9-1.1-15.8"/>
<path class="st17" d="M185.2,217.3c0,0,5.5,10,14.3,14.8c5.9,3.2,13.4,4.1,14.5,2.1c0.1-0.2,0.4-1-1.9-4.2c-2-2.7-6.2-8.1-14.2-10.7
	C192,217.4,184.9,217.3,185.2,217.3L185.2,217.3L185.2,217.3z"/>
<path class="st17" d="M214.1,234.2c-4.9-2.3-10.1-5.1-15.5-8.3c-4.9-2.9-9.3-5.8-13.3-8.6"/>
<path class="st18" d="M570.4,308.3l-3.2,8.4c0,0,2.4-1.6,3.2-3.8C571.1,310.8,570.4,308.3,570.4,308.3L570.4,308.3z"/>
</svg>
